<?xml version="1.0" encoding="UTF-8"?>
<svg width="800" height="560" enable-background="new" version="1.1" viewBox="0 0 800 560" xmlns="http://www.w3.org/2000/svg" xmlns:cc="http://creativecommons.org/ns#" xmlns:dc="http://purl.org/dc/elements/1.1/" xmlns:rdf="http://www.w3.org/1999/02/22-rdf-syntax-ns#">
 <metadata>
  <rdf:RDF>
   <cc:Work rdf:about="">
    <dc:format>image/svg+xml</dc:format>
    <dc:type rdf:resource="http://purl.org/dc/dcmitype/StillImage"/>
   </cc:Work>
  </rdf:RDF>
 </metadata>
 <g transform="translate(-36.38,-256.79)">
  <g transform="matrix(.84101 0 0 .84101 5.7844 40.827)">
   <path d="m167.04 270.79c-0.94784-2e-3 -1.8939 4e-3 -2.8379 0.0215-4.3154 0.0778-8.5893 0.3593-12.812 0.8457-33.785 3.8912-64.216 21.864-82.871 53.273-18.28 30.777-22.777 64.666-13.461 96.068 9.3166 31.402 31.885 59.932 65.297 82.533 0.20163 0.13618 0.40678 0.26709 0.61523 0.39258 28.654 17.278 57.182 28.932 87.742 34.955-0.74566 12.613-0.72532 25.572 0.082 38.844 2.4399 40.109 16.607 77.037 38.096 109.67l-77.008 31.438c-8.306 3.2593-12.342 12.682-8.9697 20.943s12.849 12.168 21.063 8.6837l84.697-34.576c15.707 18.727 33.753 35.683 53.121 50.57 0.74013 0.56891 1.4904 1.1224 2.2344 1.6855l-49.611 65.691c-5.4545 7.0474-4.1006 17.193 3.011 22.563s17.24 3.8965 22.526-3.2782l50.387-66.719c27.686 17.535 57.075 31.204 86.072 40.252 14.882 27.28 43.97 44.646 77.588 44.646 33.938 0 63.043-18.687 77.801-45.438 28.707-9.213 57.753-22.932 85.148-40.402l51.098 67.66c5.2858 7.1747 15.414 8.6488 22.526 3.2782 7.1115-5.3705 8.4654-15.516 3.011-22.563l-50.361-66.686c0.334-0.25394 0.6727-0.50077 1.0059-0.75586 19.138-14.649 37.026-31.286 52.703-49.635l82.562 33.705c8.2143 3.4843 17.691-0.42281 21.063-8.6837 3.3722-8.2609-0.6636-17.684-8.9696-20.943l-74.539-30.428c22.172-32.83 37.038-70.034 40.143-110.46 1.0253-13.353 1.2292-26.425 0.6387-39.176 30.356-6.0541 58.716-17.668 87.201-34.844 0.2085-0.12549 0.4136-0.2564 0.6153-0.39258 33.412-22.601 55.98-51.131 65.297-82.533 9.3166-31.402 4.8189-65.291-13.461-96.068-18.655-31.41-49.086-49.382-82.871-53.273-4.2231-0.4864-8.4971-0.76791-12.812-0.8457-30.208-0.54448-62.441 8.8243-93.432 26.715-22.798 13.161-43.352 33.314-59.438 55.305-44.997-25.751-103.54-40.251-175.48-41.439-6.4522-0.10663-13.012-0.10696-19.68 2e-3 -80.189 1.3093-144.38 16.509-192.87 43.992-0.11914-0.19111-0.24287-0.37932-0.37109-0.56446-16.29-22.764-37.411-43.737-60.896-57.295-30.022-17.331-61.211-26.665-90.594-26.736z" color="#000000" color-rendering="auto" dominant-baseline="auto" enable-background="accumulate" fill="none" image-rendering="auto" shape-rendering="auto" solid-color="#000000" stroke="#fff" stroke-linecap="round" stroke-linejoin="round" stroke-width="28" style="font-feature-settings:normal;font-variant-alternates:normal;font-variant-caps:normal;font-variant-ligatures:normal;font-variant-numeric:normal;font-variant-position:normal;isolation:auto;mix-blend-mode:normal;shape-padding:0;text-decoration-color:#000000;text-decoration-line:none;text-decoration-style:solid;text-indent:0;text-orientation:mixed;text-transform:none;white-space:normal"/>
   <path d="m716.86 362.96c15.291-21.368 35.362-41.109 56.51-53.317 66.664-38.484 137.03-33.222 170.08 22.43 33.095 55.721 14.987 117.49-47.644 159.85-31.956 19.268-62.933 30.923-97.229 35.545m-491.43-164.51c-15.291-21.368-35.362-41.109-56.51-53.317-66.664-38.484-137.03-33.222-170.08 22.43-33.095 55.721-14.987 117.49 47.644 159.85 31.956 19.268 62.933 30.923 97.229 35.545" fill="#fff" stroke="#000" stroke-linecap="round" stroke-linejoin="round" stroke-width="28"/>
   <path d="m801.23 576.87c11.503-149.8-80.648-254.89-289.23-251.48-208.58 3.4057-298.29 102.64-289.23 251.48 8.6429 142.08 176.8 246.4 288.12 246.4s279.45-104.54 290.34-246.4z" fill="#fff" stroke="#000" stroke-linecap="round" stroke-linejoin="round" stroke-width="28"/>
   <path d="m610.5 644.29c0 23.112 18.706 41.848 41.781 41.848s41.781-18.736 41.781-41.848-18.706-41.848-41.781-41.848-41.781 18.736-41.781 41.848zm-280.56 0c0 23.325 18.878 42.234 42.166 42.234s42.166-18.909 42.166-42.234-18.878-42.234-42.166-42.234-42.166 18.909-42.166 42.234z" stroke-width="0"/>
   <g stroke="#000">
    <path d="m339.73 769.25-54.544 72.225m399.09-72.225 54.544 72.225m-475.13-143.65-87.756 35.824m579.86-35.824 87.756 35.824" fill="none" stroke-linecap="round" stroke-width="32"/>
    <path d="m512 713.09c-45.864 0-75.13 31.845-74.142 71.101 1.0705 42.513 32.469 71.103 74.142 71.103s74.051-32.996 74.142-71.103c0.0932-39.268-28.277-71.101-74.142-71.101z" fill="#fff" stroke-linecap="round" stroke-linejoin="round" stroke-width="28"/>
    <g transform="matrix(.88298 .022359 -.022359 .88298 472.18 444.08)" stroke-width="8">
     <g transform="rotate(-1.0054 1254.4 -300.02)">
      <path d="m172.62 102.4c-42.674 0-77.392 34.739-77.392 77.438 0 5.932 4.806 10.74 10.733 10.74 5.928 0 10.733-4.808 10.733-10.74 0-30.856 25.088-55.959 55.926-55.959 5.928 0 10.733-4.808 10.733-10.74 0-5.931-4.805-10.739-10.733-10.739z" fill="#fff"/>
      <path d="m361.66 301.51c19.402-30.436 30.645-66.546 30.645-105.24 0-108.23-87.984-196.27-196.15-196.27-38.676 0-74.765 11.25-105.18 30.663-24.235 15.46-44.859 36.096-60.31 60.345-19.402 30.436-30.659 66.56-30.659 105.26 0 108.22 87.998 196.27 196.15 196.27 38.676 0 74.779-11.264 105.2-30.677 24.234-15.46 44.858-36.096 60.309-60.345zm-101.9 18.731c-19.075 9.842-40.708 15.403-63.607 15.403-76.797 0-139.3-62.535-139.3-139.38 0-22.912 5.558-44.558 15.394-63.644 13.318-25.856 34.483-47.019 60.323-60.331 19.075-9.842 40.694-15.403 63.578-15.403 76.812 0 139.3 62.521 139.3 139.38 0 22.898-5.558 44.53-15.394 63.616-13.303 25.856-34.454 47.033-60.294 60.359z" fill="#555"/>
      <path d="m499.52 439.15-113.24-113.02c-16.119 23.552-36.771 44.202-60.309 60.345l113.24 113.02c8.329 8.334 19.246 12.501 30.148 12.501 10.916 0 21.833-4.167 30.162-12.501 16.644-16.669 16.644-43.677-1e-3 -60.345z" fill="#888"/>
     </g>
    </g>
   </g>
  </g>
 </g>
</svg>
